<svg id="Capa_1" enable-background="new 0 0 512 512" height="512" viewBox="0 0 512 512" width="512" xmlns="http://www.w3.org/2000/svg"><g><path d="m460.158 167.316-.658 88.684c0 137.243-91.11 248.5-203.5 248.5 137.243 0 248.5-111.257 248.5-248.5z" fill="#48459d"/><path d="m474.5 256c0-31.247-5.085-61.138-14.342-88.684l-.658-1.316-45 90c0 87.537-70.963 158.5-158.5 158.5v90c120.674 0 218.5-111.257 218.5-248.5z" fill="#6461ac"/><path d="m256 414.5c-87.537 0-158.5-70.963-158.5-158.5h-90c0 137.243 111.257 248.5 248.5 248.5l45-45z" fill="#807dbb"/><path d="m97.5 256c0-87.537 70.963-158.5 158.5-158.5v-90c-137.243 0-248.5 111.257-248.5 248.5l45 45z" fill="#b6b5d8"/><path d="m256 7.5 248.5 248.5c0-137.243-111.257-248.5-248.5-248.5z" fill="#363476"/><path d="m256 7.5-45 45 45 45c27.402 0 53.18 6.955 75.666 19.195l-12.186 75.825 75.826-12.186c12.239 22.486 19.194 48.264 19.194 75.666l45-45 13.23 13.23c-13.717-122.239-105.52-216.73-216.73-216.73z" fill="#48459d"/><path d="m62.901 461.956-51.013 38.156c4.979 4.979 12.58 5.709 18.349 2.225l29.611-17.904z" fill="#2c2c2f"/><path d="m23.379 495.479 39.522-33.523 2.021-14.877-37.353 5.073-17.905 29.611c-3.485 5.768-2.755 13.369 2.225 18.349 1.659 1.66 6.483-.387 11.49-4.633z" fill="#424247"/><path d="m139.167 436.472 13.13-69.946-103.209 107.146 10.76 10.76z" fill="#f2b084"/><path d="m181.594 330.406-106.066 42.427-47.96 79.319 21.52 21.52 113.815-96.539z" fill="#f4ce93"/><path d="m368.066 143.934-122.673 101.459-106.226 127.44c-17.574 17.574-17.574 46.066 0 63.64l256.126-256.126c-7.309-13.431-16.503-25.686-27.227-36.413z" fill="#ec9345"/><path d="m75.528 372.833c17.574 17.574 46.066 17.574 63.64 0l228.899-228.899c-10.724-10.727-22.978-19.922-36.407-27.232z" fill="#ecc04b"/><path d="m437.019 74.981c-48.351-48.352-112.639-74.981-181.019-74.981s-132.668 26.629-181.02 74.981c-48.351 48.352-74.979 112.639-74.98 181.019 0 53.808 16.423 105.083 47.545 148.624l-44.291 73.252c-5.364 8.878-3.99 20.199 3.341 27.53s18.651 8.705 27.533 3.339l73.249-44.29c43.54 31.123 94.815 47.545 148.623 47.545 68.38 0 132.668-26.629 181.02-74.981 48.351-48.352 74.98-112.639 74.98-181.019s-26.629-132.667-74.981-181.019zm-177.95-59.943c63.225.784 122.55 25.755 167.344 70.549 41.05 41.05 65.459 94.302 69.858 151.577l-31.467-31.467c-2.929-2.929-7.677-2.929-10.607 0l-45 45c-1.407 1.407-2.197 3.314-2.197 5.304 0 40.333-15.706 78.252-44.227 106.772-28.52 28.521-66.439 44.227-106.772 44.227-21.777 0-43.357-4.736-63.005-13.749l200.293-200.293c3.904 8.546 7.058 17.557 9.364 26.965.985 4.022 5.045 6.485 9.07 5.499 4.022-.986 6.484-5.047 5.498-9.07-8.688-35.445-29.294-67.54-58.02-90.374-28.791-22.886-63.328-35.278-100.063-35.946l-37.531-37.532zm-140.32 303.967c-9.013-19.649-13.749-41.229-13.749-63.005 0-83.262 67.738-151 151-151 22.368 0 43.761 4.866 63.055 13.699zm214.24-193.026c8.737 5.163 16.923 11.193 24.435 17.991l-223.55 223.55c-12.806 12.806-32.644 14.395-47.196 4.77zm-188.509 252.148 223.55-223.55c6.76 7.471 12.798 15.647 17.986 24.44l-246.305 246.306c-9.626-14.552-8.036-34.391 4.769-47.196zm-58.893-292.54c41.05-41.05 94.302-65.459 151.577-69.857l-31.467 31.467c-2.929 2.929-2.929 7.678 0 10.607l33.086 33.086c-82.449 8.535-147.167 77.665-148.743 161.963l-37.54 37.54-37.462-37.462c.784-63.225 25.755-122.55 70.549-167.344zm-69.863 189.243 31.473 31.473c2.929 2.929 7.677 2.929 10.606 0l33.109-33.108c2.068 19.86 7.694 39.249 16.596 57.052l-37.274 37.273c-.427.427-.802.905-1.115 1.422l-13.072 21.62c-23.382-34.62-37.136-74.136-40.323-115.732zm10.644 221.078c-2.958 1.787-6.727 1.331-9.167-1.108s-2.896-6.209-1.11-9.164l12.952-21.42 18.743 18.743zm10.668-44.913 40.421-66.851c12.613 8.75 28.227 11.349 42.622 7.778-3.571 14.395-.972 30.009 7.778 42.622l-66.851 40.421zm215.888 45.974c-47.352-.586-92.519-14.702-131.484-41.017l21.618-13.071c.517-.313.995-.687 1.422-1.115l37.272-37.272c21.979 10.992 46.379 16.985 71.093 17.456l37.549 37.549zm173.489-70.556c-41.05 41.05-94.302 65.459-151.577 69.857l31.467-31.467c2.929-2.929 2.929-7.678 0-10.607l-33.08-33.08c37.831-3.875 72.899-20.479 100.157-47.736 30.613-30.613 47.797-71.078 48.591-114.244l37.529-37.529 37.462 37.462c-.784 63.225-25.755 122.55-70.549 167.344z"/></g></svg>