<svg id="Слой_1" data-name="Слой 1" xmlns="http://www.w3.org/2000/svg" viewBox="0 0 918.36 905.76"><defs><style>.cls-1{fill:#fff541;}.cls-2{fill:#c83605;}.cls-3,.cls-4{fill:#ff3605;}.cls-4{stroke:#ff3605;stroke-width:16px;}.cls-11,.cls-4,.cls-5{stroke-miterlimit:10;}.cls-11,.cls-5{fill:none;stroke:#c83605;}.cls-5{stroke-width:10px;}.cls-6{fill:#c83606;}.cls-7{fill:#ffa430;}.cls-8{fill:#d5ff92;}.cls-9{fill:#f4ffdc;}.cls-10{fill:#f15a24;}.cls-11{stroke-width:5px;}</style></defs><path class="cls-1" d="M538.91,793.31c-17.53,0-27-1-31-1.88-5.77-19.81-18.13-43.2-32.32-70.06-33.28-63-74.67-141.33-55.16-219.52L532.71,298.71a225.79,225.79,0,0,1,82.1-76,220.64,220.64,0,0,1,104.25-26.44,211.36,211.36,0,0,1,114.85,33.8l10.93,7.06c48.4,31.24,81.45,79.94,93,137.13s.35,116.15-31.73,165.84L774.8,738.87c-12,18.63-24.86,22.06-46.11,27.74-2.37.63-4.8,1.28-7.32,2C655.27,786.83,581.77,793.31,538.91,793.31Z" transform="translate(-155 -41.06)"/><path class="cls-2" d="M719.08,204.27A203.21,203.21,0,0,1,829.57,236.8l10.93,7a201.92,201.92,0,0,1,58.8,57.83,207,207,0,0,1,30.75,74.17,213.11,213.11,0,0,1,.72,81.17,216.81,216.81,0,0,1-31.29,78.67L768.13,734.46l0,.07,0,.07c-10.31,16-20.71,18.74-41.42,24.28q-3.57.95-7.38,2c-65.33,18-138,24.44-180.33,24.44a226.86,226.86,0,0,1-24.89-1c-6.45-19.43-18.14-41.54-31.39-66.62-32.49-61.52-72.87-137.94-54.72-212.85l111.67-202a217.69,217.69,0,0,1,79-73.06,212.58,212.58,0,0,1,100.47-25.49h0m0-16c-74.84,0-148.87,37.64-193.21,106.33l-113,204.28c-30,117.12,71.61,233.49,88.18,298,.68,2.66,15.06,4.42,37.83,4.42,43.34,0,117.08-6.37,184.59-25,25.47-7,42.84-9.56,58-33l131.4-198.85c68.68-106.39,40.16-247-63.7-314l-10.93-7.06a218.84,218.84,0,0,0-119.19-35.08Z" transform="translate(-155 -41.06)"/><rect class="cls-3" x="636.39" y="308.71" width="54.2" height="418.34" transform="translate(-286.87 752.17) rotate(-57.07)"/><path class="cls-2" d="M505,392.49l337.7,218.73L822,643.28,484.26,424.55,505,392.49m-4.73-22.13-38.16,58.92L826.69,665.4l38.16-58.92L500.29,370.36Z" transform="translate(-155 -41.06)"/><path class="cls-2" d="M433.57,555.45c-1.33-4.19-2.9-8.35-4.43-12.4-6.68-17.67-12.45-32.92-1-50.55a4.33,4.33,0,0,1,6-1.28L778,713.93a4.31,4.31,0,0,1,1.88,2.73,4.26,4.26,0,0,1,0,1.88l-24.13,13.52-.94,1.45c-3.22,3.36-21.15,11.53-28.16,11.73Z" transform="translate(-155 -41.06)"/><path class="cls-2" d="M433,500,767.15,716.47l-13.64,7.64-3.46,1.94-1.33,2.05c-3.67,2.66-14.59,7.47-20.29,8.8L440.29,550.27c-1.16-3.42-2.43-6.77-3.67-10-6.48-17.15-10-28-3.65-40.2m-1.22-17.5a12.33,12.33,0,0,0-10.36,5.63h0c-17.37,26.83-1,50,5.37,72.42l296.43,192a6,6,0,0,0,3.14.67c9.39,0,31.76-10.17,35-15.17L786,724.27a12.33,12.33,0,0,0-3.65-17L438.44,484.51a12.2,12.2,0,0,0-6.69-2Z" transform="translate(-155 -41.06)"/><path class="cls-2" d="M557.09,792.16a106.16,106.16,0,0,1-42.34-8.83l-7.84-8.63c-8-20.06-17.52-38.57-27.62-58.14-9.35-18.1-18.93-36.65-27.29-56.82L627.86,772.27l4.13,3.54C603.19,785.16,579.66,792.16,557.09,792.16Z" transform="translate(-155 -41.06)"/><path class="cls-2" d="M470.3,680.94l144,92.12c-21.38,6.59-39.79,11.1-57.16,11.1a97.7,97.7,0,0,1-37.63-7.54l-5.66-6.23c-8-20-17.87-39-27.4-57.5-5.39-10.43-10.85-21-16.1-31.95M436,640c18,53,46,93,64,139l10,11c16.54,7.19,31.76,10.16,47.09,10.16,27.3,0,54.93-9.42,90.91-21.16l-15.35-13.17L436,640Z" transform="translate(-155 -41.06)"/><path class="cls-4" d="M448.11,645" transform="translate(-155 -41.06)"/><path class="cls-5" d="M735.35,201.14C763.7,157.38,717.88,30.39,681.68,54" transform="translate(-155 -41.06)"/><path class="cls-5" d="M908.42,313.24c28.35-43.77,137.3-62.67,152.55-13.59" transform="translate(-155 -41.06)"/><circle class="cls-6" cx="523.32" cy="12.07" r="12.07"/><circle class="cls-6" cx="906.29" cy="260.11" r="12.07"/><circle class="cls-7" cx="553.67" cy="235.58" r="27.42"/><circle class="cls-8" cx="551.74" cy="226.55" r="6.53"/><circle class="cls-7" cx="674.14" cy="312.86" r="27.42"/><circle class="cls-8" cx="672.21" cy="303.83" r="6.53"/><path class="cls-9" d="M401.76,647.54a74.12,74.12,0,0,1-69-47.69,73.72,73.72,0,0,1,42.93-95c17.63-6.66,49.14-11.13,78.41-11.13,47,0,77.81,10.34,84.62,28.37,8.28,21.92-18.54,52.31-35.26,68.47C480.21,613,448.38,635,427.78,642.77A73.31,73.31,0,0,1,401.76,647.54Z" transform="translate(-155 -41.06)"/><path class="cls-10" d="M454.11,496.21c45.19,0,75.95,10,82.28,26.75,5.68,15-6.95,39-34.65,65.79-26.12,25.24-57.42,45.1-74.84,51.68a71.22,71.22,0,0,1-50.32-133.26c17.38-6.56,48.53-11,77.53-11h0m0-5c-30.85,0-62,4.77-79.29,11.29a76.22,76.22,0,1,0,53.85,142.61c39.38-14.87,127.27-84.53,112.4-123.91-8.36-22.13-47.39-30-87-30Z" transform="translate(-155 -41.06)"/><path class="cls-9" d="M311.31,557.41a233.88,233.88,0,0,1-30.79-1.77C203,545.19,148.34,473.58,158.79,396a142,142,0,0,1,140.5-123,144.57,144.57,0,0,1,19.14,1.29C360,279.88,428.55,307,481.34,338.71c38.24,23,101.48,68.31,95.38,113.6-2.13,15.82-12.84,30.85-31.83,44.68-17.09,12.44-40.4,23.62-69.29,33.23C426,546.74,361.48,557.41,311.31,557.41Z" transform="translate(-155 -41.06)"/><path class="cls-10" d="M299.31,270.48v5a141.34,141.34,0,0,1,18.79,1.27c41.31,5.56,109.42,32.52,162,64.1,29.9,18,54.23,37,70.34,55C568.51,416.11,576.53,435,574.24,452c-2,15.12-12.41,29.58-30.83,43-16.88,12.29-40,23.35-68.6,32.88-49.4,16.44-113.58,27.06-163.5,27.06a232.58,232.58,0,0,1-30.46-1.74,139.47,139.47,0,0,1,18.44-277.69l0-5m0,0a144.47,144.47,0,0,0-19.1,287.64,237.38,237.38,0,0,0,31.12,1.79c92.48,0,258.43-37.09,267.89-107.26,10.65-79.07-181.37-170.2-260.44-180.86a146,146,0,0,0-19.47-1.31Z" transform="translate(-155 -41.06)"/><path class="cls-11" d="M193.76,404.26C153.05,459.48,246.21,539,285.13,522.78" transform="translate(-155 -41.06)"/><path class="cls-11" d="M354.74,568.28c-20.26,27.48,26.1,67.07,45.47,59" transform="translate(-155 -41.06)"/><path class="cls-9" d="M722.29,847.37a71.7,71.7,0,0,1-71.71-68.58c-1-21.44,6.43-58.41,17.6-87.92,8-21.19,24.89-56.9,47.69-57.94l1,0c22.64,0,42.39,34,52.15,54.22,13.59,28.18,24.14,64,25.11,85.14a71.86,71.86,0,0,1-68.51,75C724.51,847.35,723.39,847.37,722.29,847.37Z" transform="translate(-155 -41.06)"/><path class="cls-10" d="M716.86,635.41c15.54,0,33.73,19.24,49.9,52.8,15.25,31.63,24,66.29,24.86,84.18A69.42,69.42,0,0,1,725.5,844.8c-1.07.05-2.15.07-3.21.07a69.33,69.33,0,0,1-69.21-66.19c-.82-18.13,4.9-53.81,17.44-86.92,13.28-35.09,29.86-55.62,45.46-56.33.3,0,.59,0,.88,0m0-5-1.1,0c-41,1.87-69.54,107.46-67.67,148.48a74.34,74.34,0,0,0,74.2,71c1.14,0,2.28,0,3.43-.07a74.34,74.34,0,0,0,70.89-77.64c-1.84-40.65-39.16-141.75-79.75-141.75Z" transform="translate(-155 -41.06)"/><path class="cls-9" d="M904.22,944.32A138.37,138.37,0,0,1,785.41,877.1c-21.06-35.11-42.13-103.8-50.1-163.33-5.77-43.12-9.75-118.88,28.44-141.79,7.58-4.54,16.73-6.84,27.21-6.84,32.81,0,79.12,22.35,130.41,62.93,42.61,33.71,83.35,76.56,101.39,106.63A138.42,138.42,0,0,1,904.23,944.32Z" transform="translate(-155 -41.06)"/><path class="cls-10" d="M791,567.64c16.89,0,37.42,6,61,17.93,21,10.56,44.43,25.94,67.83,44.46,42.4,33.54,82.91,76.13,100.81,106a135.93,135.93,0,0,1-116.4,205.83,135.83,135.83,0,0,1-116.66-66C766.65,841,745.72,772.67,737.79,713.44c-4.51-33.72-4.83-63.82-.92-87.06,4.39-26.09,13.87-43.67,28.17-52.25,7.18-4.31,15.9-6.49,25.92-6.49m0-5c-10.61,0-20.23,2.24-28.49,7.2-66.73,40-19.23,241.82,20.8,308.54a140.89,140.89,0,1,0,241.64-145C989.84,675,866,562.64,791,562.64Z" transform="translate(-155 -41.06)"/><path class="cls-11" d="M967.24,874.54C953.51,940,835.37,924.11,822,885.27" transform="translate(-155 -41.06)"/><path class="cls-11" d="M745.47,813c-9.78,27.42-62.9,10.43-67-7.67" transform="translate(-155 -41.06)"/></svg>